<svg width="50" height="50" viewBox="0 0 50 50" fill="none" xmlns="http://www.w3.org/2000/svg">
  <!-- Background pattern -->
  <rect width="50" height="50" fill="#B58863" rx="4"/>
  
  <!-- Geometric pattern lines -->
  <g stroke="#291C0E" stroke-width="0.5" opacity="0.6">
    <!-- Horizontal lines -->
    <line x1="0" y1="10" x2="50" y2="10"/>
    <line x1="0" y1="20" x2="50" y2="20"/>
    <line x1="0" y1="30" x2="50" y2="30"/>
    <line x1="0" y1="40" x2="50" y2="40"/>
    
    <!-- Vertical lines -->
    <line x1="10" y1="0" x2="10" y2="50"/>
    <line x1="20" y1="0" x2="20" y2="50"/>
    <line x1="30" y1="0" x2="30" y2="50"/>
    <line x1="40" y1="0" x2="40" y2="50"/>
  </g>
  
  <!-- Main geometric shapes -->
  <g fill="#291C0E">
    <!-- Central diamond shape -->
    <polygon points="25,15 35,25 25,35 15,25" opacity="0.8"/>
    
    <!-- Corner triangles -->
    <polygon points="5,5 15,5 10,15" opacity="0.6"/>
    <polygon points="35,5 45,5 40,15" opacity="0.6"/>
    <polygon points="5,45 15,45 10,35" opacity="0.6"/>
    <polygon points="35,45 45,45 40,35" opacity="0.6"/>
  </g>
  
  <!-- Accent lines -->
  <g stroke="#E1D4C2" stroke-width="1" opacity="0.8">
    <line x1="15" y1="15" x2="35" y2="35"/>
    <line x1="35" y1="15" x2="15" y2="35"/>
  </g>
</svg>
